<?xml version="1.0" encoding="UTF-8"?>
<svg xmlns="http://www.w3.org/2000/svg" viewBox="0 0 1920 1080">
  <defs>
    <style>
      .cls-1 {
        fill: #fff;
      }

      .cls-2 {
        fill: #212736;
      }
    </style>
  </defs>
  <g id="Layer_20" data-name="Layer 20">
    <path class="cls-2" d="m286.74,744.1c0,4.12-1.49,7.37-4.48,9.75-2.99,2.38-7.13,3.58-12.42,3.58s-9.45-.87-13-2.6v-7.8c1.95.87,4.11,1.66,6.47,2.37,2.36.71,4.73,1.07,7.12,1.07,2.82,0,4.86-.55,6.14-1.66,1.28-1.11,1.92-2.52,1.92-4.26,0-1.91-.82-3.43-2.47-4.58-1.65-1.15-4.05-2.39-7.21-3.74-1.91-.78-3.74-1.74-5.49-2.89-1.76-1.15-3.19-2.6-4.29-4.35-1.11-1.75-1.66-3.95-1.66-6.6,0-3.94,1.4-7.04,4.19-9.29,2.8-2.25,6.53-3.38,11.21-3.38,2.43,0,4.73.26,6.92.78,2.19.52,4.34,1.26,6.47,2.21l-2.67,6.69c-1.95-.82-3.8-1.47-5.56-1.95-1.76-.48-3.57-.71-5.43-.71-2.25,0-3.96.5-5.13,1.5-1.17,1-1.76,2.32-1.76,3.96,0,1.26.33,2.33.98,3.22.65.89,1.66,1.7,3.02,2.44,1.37.74,3.13,1.58,5.3,2.54,2.51,1.08,4.65,2.22,6.4,3.41,1.75,1.19,3.1,2.6,4.03,4.23s1.4,3.65,1.4,6.08Z"/>
    <path class="cls-2" d="m298.76,710.36h13.97c6.02,0,10.58.87,13.68,2.6,3.1,1.73,4.65,4.75,4.65,9.04,0,2.69-.67,4.93-2.01,6.73-1.34,1.8-3.27,2.94-5.79,3.41v.33c1.69.35,3.22.91,4.58,1.69,1.36.78,2.46,1.92,3.28,3.41.82,1.5,1.24,3.46,1.24,5.88,0,4.2-1.5,7.48-4.49,9.82s-7.04,3.51-12.16,3.51h-16.96v-46.41Zm8.32,18.92h6.76c3.29,0,5.56-.53,6.79-1.59,1.23-1.06,1.85-2.59,1.85-4.58s-.75-3.58-2.24-4.48c-1.5-.91-3.85-1.37-7.05-1.37h-6.11v12.02Zm0,6.7v13.84h7.54c3.38,0,5.73-.66,7.05-1.98,1.32-1.32,1.98-3.04,1.98-5.17s-.68-3.66-2.05-4.88c-1.37-1.21-3.83-1.82-7.38-1.82h-7.15Z"/>
    <path class="cls-2" d="m386.64,733.5c0,4.81-.79,9-2.37,12.58-1.58,3.58-4,6.36-7.25,8.35-3.25,1.99-7.32,2.99-12.22,2.99s-9.08-1-12.29-2.99c-3.21-1.99-5.6-4.79-7.18-8.38-1.58-3.6-2.37-7.8-2.37-12.61s.79-8.94,2.37-12.51c1.58-3.57,3.99-6.35,7.22-8.32,3.23-1.97,7.33-2.96,12.32-2.96s8.96.99,12.19,2.96c3.23,1.97,5.63,4.75,7.21,8.32,1.58,3.58,2.37,7.77,2.37,12.58Zm-34.9,0c0,5.24,1.05,9.36,3.15,12.35,2.1,2.99,5.41,4.49,9.91,4.49s7.97-1.5,10.01-4.49,3.06-7.11,3.06-12.35-1.02-9.36-3.06-12.35c-2.04-2.99-5.35-4.48-9.94-4.48s-7.88,1.5-9.98,4.48c-2.1,2.99-3.15,7.11-3.15,12.35Z"/>
    <path class="cls-2" d="m419.73,756.77l-12.74-38.02h-.26c.09.87.16,2.09.23,3.67.07,1.58.13,3.29.2,5.14.06,1.84.1,3.56.1,5.17v24.05h-7.47v-46.41h11.57l12.22,36.47h.26l12.74-36.47h11.57v46.41h-7.93v-24.44c0-1.47.03-3.09.1-4.84.07-1.75.13-3.42.2-5,.06-1.58.12-2.81.16-3.67h-.26l-13.26,37.96h-7.41Z"/>
    <path class="cls-2" d="m518.52,710.36l-16.05,46.41h-8.91l-16.05-46.41h8.51l9.36,28.41c.26.78.56,1.79.91,3.02.35,1.24.68,2.5,1.01,3.8.32,1.3.57,2.43.75,3.38.17-.95.41-2.07.71-3.35.3-1.28.63-2.54.98-3.77.35-1.24.65-2.26.91-3.09l9.36-28.41h8.51Z"/>
    <path class="cls-2" d="m531.14,707.96c1.21,0,2.27.31,3.18.94.91.63,1.37,1.75,1.37,3.35s-.46,2.73-1.37,3.38c-.91.65-1.97.97-3.18.97s-2.33-.33-3.22-.97c-.89-.65-1.33-1.78-1.33-3.38s.44-2.72,1.33-3.35c.89-.63,1.96-.94,3.22-.94Zm4.09,13.58v35.23h-8.19v-35.23h8.19Z"/>
    <path class="cls-2" d="m572.93,746.57c0,3.55-1.27,6.25-3.8,8.09-2.54,1.84-6.17,2.76-10.89,2.76-2.47,0-4.58-.17-6.34-.52-1.75-.35-3.46-.89-5.1-1.62v-6.96c1.73.82,3.65,1.52,5.75,2.08,2.1.56,4.08.85,5.95.85,2.25,0,3.88-.35,4.88-1.04,1-.69,1.5-1.62,1.5-2.79,0-.69-.2-1.31-.58-1.85-.39-.54-1.15-1.14-2.28-1.79-1.13-.65-2.84-1.45-5.13-2.4-2.25-.91-4.13-1.82-5.62-2.73s-2.62-1.99-3.38-3.25c-.76-1.26-1.14-2.88-1.14-4.88,0-3.16,1.26-5.56,3.77-7.18,2.51-1.62,5.83-2.44,9.94-2.44,2.17,0,4.21.22,6.14.65,1.93.43,3.87,1.08,5.82,1.95l-2.6,6.04c-1.65-.69-3.25-1.28-4.81-1.76-1.56-.48-3.16-.71-4.81-.71-3.6,0-5.39,1.02-5.39,3.06,0,.74.23,1.36.68,1.88.46.52,1.26,1.07,2.4,1.66s2.78,1.29,4.91,2.11c2.08.82,3.88,1.68,5.39,2.57,1.52.89,2.69,1.97,3.51,3.25.82,1.28,1.24,2.94,1.24,4.97Z"/>
    <path class="cls-2" d="m615.31,721.54v35.23h-6.44l-1.1-4.55h-.39c-1.13,1.82-2.69,3.14-4.68,3.96-1.99.82-4.09,1.24-6.3,1.24-3.94,0-7.03-1.02-9.26-3.05-2.23-2.04-3.35-5.31-3.35-9.82v-23.01h8.19v21.38c0,2.64.52,4.62,1.56,5.92s2.69,1.95,4.94,1.95c3.29,0,5.56-1.04,6.79-3.12,1.24-2.08,1.85-5.05,1.85-8.91v-17.22h8.19Z"/>
    <path class="cls-2" d="m643.06,720.89c4.55,0,8.01,1,10.37,2.99,2.36,1.99,3.54,5.07,3.54,9.23v23.66h-5.79l-1.62-4.88h-.26c-1.52,1.91-3.12,3.3-4.81,4.19-1.69.89-3.99,1.33-6.89,1.33-3.16,0-5.79-.89-7.86-2.67-2.08-1.78-3.12-4.53-3.12-8.25s1.33-6.37,4-8.19c2.67-1.82,6.71-2.84,12.12-3.05l6.11-.2v-1.75c0-2.25-.54-3.86-1.62-4.81-1.08-.95-2.6-1.43-4.55-1.43-1.78,0-3.48.25-5.1.75s-3.24,1.12-4.84,1.85l-2.6-5.72c1.73-.91,3.71-1.65,5.95-2.21,2.23-.56,4.56-.84,6.99-.84Zm5.79,19.24l-4.29.13c-3.6.13-6.09.75-7.47,1.85-1.39,1.1-2.08,2.59-2.08,4.45,0,1.69.49,2.89,1.46,3.61.98.72,2.26,1.07,3.87,1.07,2.38,0,4.4-.68,6.04-2.05,1.65-1.37,2.47-3.39,2.47-6.08v-2.99Z"/>
    <path class="cls-2" d="m678.68,756.77h-8.19v-49.4h8.19v49.4Z"/>
    <path class="cls-2" d="m696.49,707.96c1.21,0,2.27.31,3.18.94.91.63,1.37,1.75,1.37,3.35s-.46,2.73-1.37,3.38c-.91.65-1.97.97-3.18.97s-2.33-.33-3.22-.97c-.89-.65-1.33-1.78-1.33-3.38s.44-2.72,1.33-3.35c.89-.63,1.96-.94,3.22-.94Zm4.09,13.58v35.23h-8.19v-35.23h8.19Z"/>
    <path class="cls-2" d="m738.16,756.77h-27.04v-5l17.29-23.99h-16.32v-6.24h25.54v5.52l-16.96,23.4h17.49v6.3Z"/>
    <path class="cls-2" d="m762.86,720.89c4.55,0,8.01,1,10.37,2.99,2.36,1.99,3.54,5.07,3.54,9.23v23.66h-5.79l-1.62-4.88h-.26c-1.52,1.91-3.12,3.3-4.81,4.19-1.69.89-3.99,1.33-6.89,1.33-3.16,0-5.79-.89-7.86-2.67-2.08-1.78-3.12-4.53-3.12-8.25s1.33-6.37,4-8.19c2.67-1.82,6.71-2.84,12.12-3.05l6.11-.2v-1.75c0-2.25-.54-3.86-1.62-4.81-1.08-.95-2.6-1.43-4.55-1.43-1.78,0-3.48.25-5.1.75s-3.24,1.12-4.84,1.85l-2.6-5.72c1.73-.91,3.71-1.65,5.95-2.21,2.23-.56,4.56-.84,6.99-.84Zm5.79,19.24l-4.29.13c-3.6.13-6.09.75-7.47,1.85-1.39,1.1-2.08,2.59-2.08,4.45,0,1.69.49,2.89,1.46,3.61.98.72,2.26,1.07,3.87,1.07,2.38,0,4.4-.68,6.04-2.05,1.65-1.37,2.47-3.39,2.47-6.08v-2.99Z"/>
    <path class="cls-2" d="m803.94,750.86c1,0,1.98-.1,2.96-.29.98-.2,1.87-.42,2.7-.68v6.11c-.87.43-1.99.78-3.38,1.04-1.39.26-2.84.39-4.36.39-2.04,0-3.87-.33-5.49-.98-1.62-.65-2.92-1.8-3.87-3.44-.95-1.65-1.43-3.96-1.43-6.96v-18.33h-4.75v-3.58l5.2-2.86,2.6-7.47h5.14v7.74h10.01v6.17h-10.01v18.26c0,1.65.44,2.87,1.33,3.67.89.8,2,1.2,3.35,1.2Z"/>
    <path class="cls-2" d="m824.02,707.96c1.21,0,2.27.31,3.18.94.91.63,1.37,1.75,1.37,3.35s-.46,2.73-1.37,3.38c-.91.65-1.97.97-3.18.97s-2.33-.33-3.22-.97c-.89-.65-1.33-1.78-1.33-3.38s.44-2.72,1.33-3.35c.89-.63,1.96-.94,3.22-.94Zm4.09,13.58v35.23h-8.19v-35.23h8.19Z"/>
    <path class="cls-2" d="m873.29,739.09c0,5.85-1.52,10.37-4.55,13.55-3.03,3.18-7.15,4.78-12.35,4.78-3.21,0-6.07-.71-8.58-2.15-2.51-1.43-4.49-3.51-5.92-6.24-1.43-2.73-2.15-6.04-2.15-9.95,0-5.85,1.51-10.35,4.52-13.49s7.12-4.71,12.32-4.71c3.25,0,6.13.71,8.65,2.11,2.51,1.41,4.49,3.47,5.92,6.18s2.14,6.01,2.14,9.91Zm-25.15,0c0,3.73.66,6.61,1.98,8.64,1.32,2.04,3.46,3.06,6.4,3.06s5.03-1.02,6.37-3.06c1.34-2.04,2.01-4.92,2.01-8.64s-.67-6.59-2.01-8.58c-1.34-1.99-3.49-2.99-6.44-2.99s-5.07,1-6.37,2.99c-1.3,1.99-1.95,4.85-1.95,8.58Z"/>
    <path class="cls-2" d="m903.84,720.89c3.94,0,7.03,1.02,9.26,3.05,2.23,2.04,3.35,5.33,3.35,9.88v22.94h-8.19v-21.32c0-2.64-.52-4.63-1.56-5.95-1.04-1.32-2.69-1.98-4.94-1.98-3.29,0-5.55,1.04-6.76,3.12-1.21,2.08-1.82,5.05-1.82,8.91v17.22h-8.19v-35.23h6.31l1.17,4.61h.46c1.13-1.82,2.67-3.15,4.65-4,1.97-.84,4.06-1.27,6.27-1.27Z"/>
    <path class="cls-2" d="m966.63,756.77h-19.5v-4.75l5.59-2.08v-32.69l-5.59-2.15v-4.75h19.5v4.75l-5.59,2.15v32.69l5.59,2.08v4.75Z"/>
    <path class="cls-2" d="m996.27,720.89c3.94,0,7.03,1.02,9.26,3.05,2.23,2.04,3.35,5.33,3.35,9.88v22.94h-8.19v-21.32c0-2.64-.52-4.63-1.56-5.95-1.04-1.32-2.69-1.98-4.94-1.98-3.29,0-5.55,1.04-6.76,3.12-1.21,2.08-1.82,5.05-1.82,8.91v17.22h-8.19v-35.23h6.31l1.17,4.61h.46c1.13-1.82,2.67-3.15,4.65-4,1.97-.84,4.06-1.27,6.27-1.27Z"/>
    <path class="cls-2" d="m1036.05,750.86c1,0,1.98-.1,2.96-.29.98-.2,1.87-.42,2.7-.68v6.11c-.87.43-1.99.78-3.38,1.04-1.39.26-2.84.39-4.36.39-2.04,0-3.87-.33-5.49-.98-1.62-.65-2.92-1.8-3.87-3.44-.95-1.65-1.43-3.96-1.43-6.96v-18.33h-4.75v-3.58l5.2-2.86,2.6-7.47h5.14v7.74h10.01v6.17h-10.01v18.26c0,1.65.44,2.87,1.33,3.67.89.8,2,1.2,3.35,1.2Z"/>
    <path class="cls-2" d="m1066.21,720.89c4.72,0,8.46,1.41,11.21,4.23,2.75,2.82,4.13,6.74,4.13,11.76v4.16h-23.27c.09,3.21.98,5.69,2.67,7.44,1.69,1.75,4.03,2.63,7.02,2.63,2.25,0,4.29-.23,6.11-.68,1.82-.46,3.68-1.12,5.59-1.98v6.56c-1.73.82-3.53,1.43-5.39,1.82-1.86.39-4.09.58-6.7.58-3.47,0-6.52-.66-9.17-1.98-2.64-1.32-4.71-3.32-6.21-5.98s-2.24-6.01-2.24-10.04c0-6.02,1.48-10.62,4.45-13.78,2.97-3.16,6.9-4.75,11.8-4.75Zm0,6.04c-2.21,0-4,.71-5.36,2.11-1.37,1.41-2.16,3.5-2.37,6.27h15.14c-.04-2.43-.66-4.43-1.85-6.01-1.19-1.58-3.04-2.37-5.56-2.37Z"/>
    <path class="cls-2" d="m1104.88,720.89c4.55,0,8.04,1.73,10.46,5.2h.33l.78-4.55h6.83v35.49c0,5.03-1.41,8.84-4.23,11.44-2.82,2.6-7.06,3.9-12.74,3.9-2.51,0-4.83-.16-6.96-.49-2.12-.32-4.14-.88-6.04-1.66v-6.76c1.99.87,4.13,1.54,6.4,2.01,2.27.48,4.65.71,7.12.71,2.64,0,4.68-.75,6.11-2.24,1.43-1.5,2.14-3.67,2.14-6.53v-.91c0-.65.02-1.41.07-2.28.04-.87.11-1.56.19-2.08h-.26c-1.21,1.82-2.7,3.15-4.45,4s-3.74,1.27-5.95,1.27c-4.29,0-7.65-1.6-10.08-4.81-2.43-3.21-3.64-7.67-3.64-13.39s1.22-10.21,3.67-13.46c2.45-3.25,5.86-4.88,10.24-4.88Zm2.15,6.7c-5.11,0-7.67,3.92-7.67,11.76s2.6,11.57,7.8,11.57c2.86,0,4.97-.79,6.34-2.37,1.37-1.58,2.05-4.26,2.05-8.03v-1.23c0-4.16-.68-7.15-2.05-8.97-1.36-1.82-3.52-2.73-6.47-2.73Z"/>
    <path class="cls-2" d="m1155.45,720.89c.56,0,1.19.03,1.89.1.69.07,1.26.14,1.69.23l-.71,7.6c-.43-.09-.96-.16-1.59-.23-.63-.06-1.16-.1-1.59-.1-1.73,0-3.36.36-4.88,1.07-1.52.71-2.74,1.81-3.67,3.28-.93,1.47-1.4,3.36-1.4,5.66v18.26h-8.19v-35.23h6.31l1.17,6.11h.39c1.04-1.86,2.47-3.46,4.29-4.78,1.82-1.32,3.92-1.98,6.3-1.98Z"/>
    <path class="cls-2" d="m1182.82,720.89c4.55,0,8.01,1,10.37,2.99,2.36,1.99,3.54,5.07,3.54,9.23v23.66h-5.79l-1.62-4.88h-.26c-1.52,1.91-3.12,3.3-4.81,4.19-1.69.89-3.99,1.33-6.89,1.33-3.16,0-5.79-.89-7.86-2.67-2.08-1.78-3.12-4.53-3.12-8.25s1.33-6.37,4-8.19c2.67-1.82,6.71-2.84,12.12-3.05l6.11-.2v-1.75c0-2.25-.54-3.86-1.62-4.81-1.08-.95-2.6-1.43-4.55-1.43-1.78,0-3.48.25-5.1.75s-3.24,1.12-4.84,1.85l-2.6-5.72c1.73-.91,3.71-1.65,5.95-2.21,2.23-.56,4.56-.84,6.99-.84Zm5.79,19.24l-4.29.13c-3.6.13-6.09.75-7.47,1.85-1.39,1.1-2.08,2.59-2.08,4.45,0,1.69.49,2.89,1.46,3.61.98.72,2.26,1.07,3.87,1.07,2.38,0,4.4-.68,6.04-2.05,1.65-1.37,2.47-3.39,2.47-6.08v-2.99Z"/>
    <path class="cls-2" d="m1223.9,750.86c1,0,1.98-.1,2.96-.29.98-.2,1.87-.42,2.7-.68v6.11c-.87.43-1.99.78-3.38,1.04-1.39.26-2.84.39-4.36.39-2.04,0-3.87-.33-5.49-.98-1.62-.65-2.92-1.8-3.87-3.44-.95-1.65-1.43-3.96-1.43-6.96v-18.33h-4.75v-3.58l5.2-2.86,2.6-7.47h5.14v7.74h10.01v6.17h-10.01v18.26c0,1.65.44,2.87,1.33,3.67.89.8,2,1.2,3.35,1.2Z"/>
    <path class="cls-2" d="m1243.98,707.96c1.21,0,2.27.31,3.18.94.91.63,1.37,1.75,1.37,3.35s-.46,2.73-1.37,3.38c-.91.65-1.97.97-3.18.97s-2.33-.33-3.22-.97c-.89-.65-1.33-1.78-1.33-3.38s.44-2.72,1.33-3.35c.89-.63,1.96-.94,3.22-.94Zm4.09,13.58v35.23h-8.19v-35.23h8.19Z"/>
    <path class="cls-2" d="m1293.25,739.09c0,5.85-1.52,10.37-4.55,13.55-3.03,3.18-7.15,4.78-12.35,4.78-3.21,0-6.07-.71-8.58-2.15-2.51-1.43-4.49-3.51-5.92-6.24-1.43-2.73-2.15-6.04-2.15-9.95,0-5.85,1.51-10.35,4.52-13.49s7.12-4.71,12.32-4.71c3.25,0,6.13.71,8.65,2.11,2.51,1.41,4.49,3.47,5.92,6.18s2.14,6.01,2.14,9.91Zm-25.15,0c0,3.73.66,6.61,1.98,8.64,1.32,2.04,3.46,3.06,6.4,3.06s5.03-1.02,6.37-3.06c1.34-2.04,2.01-4.92,2.01-8.64s-.67-6.59-2.01-8.58c-1.34-1.99-3.49-2.99-6.44-2.99s-5.07,1-6.37,2.99c-1.3,1.99-1.95,4.85-1.95,8.58Z"/>
    <path class="cls-2" d="m1323.8,720.89c3.94,0,7.03,1.02,9.26,3.05,2.23,2.04,3.35,5.33,3.35,9.88v22.94h-8.19v-21.32c0-2.64-.52-4.63-1.56-5.95-1.04-1.32-2.69-1.98-4.94-1.98-3.29,0-5.55,1.04-6.76,3.12-1.21,2.08-1.82,5.05-1.82,8.91v17.22h-8.19v-35.23h6.31l1.17,4.61h.46c1.13-1.82,2.67-3.15,4.65-4,1.97-.84,4.06-1.27,6.27-1.27Z"/>
    <path class="cls-2" d="m1384.71,710.36c6.02,0,10.41,1.25,13.16,3.74,2.75,2.49,4.13,5.97,4.13,10.43,0,2.64-.56,5.11-1.69,7.41-1.13,2.3-3.02,4.16-5.69,5.59-2.67,1.43-6.27,2.15-10.82,2.15h-4.62v17.09h-8.32v-46.41h13.84Zm-.52,6.89h-5v15.54h3.77c3.38,0,5.99-.62,7.83-1.85,1.84-1.24,2.76-3.26,2.76-6.08,0-2.56-.76-4.46-2.28-5.72-1.52-1.26-3.88-1.88-7.08-1.88Z"/>
    <path class="cls-2" d="m1421.75,756.77h-8.19v-49.4h8.19v49.4Z"/>
    <path class="cls-2" d="m1449.51,720.89c4.55,0,8.01,1,10.37,2.99,2.36,1.99,3.54,5.07,3.54,9.23v23.66h-5.79l-1.62-4.88h-.26c-1.52,1.91-3.12,3.3-4.81,4.19-1.69.89-3.99,1.33-6.89,1.33-3.16,0-5.79-.89-7.86-2.67-2.08-1.78-3.12-4.53-3.12-8.25s1.33-6.37,4-8.19c2.67-1.82,6.71-2.84,12.12-3.05l6.11-.2v-1.75c0-2.25-.54-3.86-1.62-4.81-1.08-.95-2.6-1.43-4.55-1.43-1.78,0-3.48.25-5.1.75s-3.24,1.12-4.84,1.85l-2.6-5.72c1.73-.91,3.71-1.65,5.95-2.21,2.23-.56,4.56-.84,6.99-.84Zm5.79,19.24l-4.29.13c-3.6.13-6.09.75-7.47,1.85-1.39,1.1-2.08,2.59-2.08,4.45,0,1.69.49,2.89,1.46,3.61.98.72,2.26,1.07,3.87,1.07,2.38,0,4.4-.68,6.04-2.05,1.65-1.37,2.47-3.39,2.47-6.08v-2.99Z"/>
    <path class="cls-2" d="m1490.59,750.86c1,0,1.98-.1,2.96-.29.98-.2,1.87-.42,2.7-.68v6.11c-.87.43-1.99.78-3.38,1.04-1.39.26-2.84.39-4.36.39-2.04,0-3.87-.33-5.49-.98-1.62-.65-2.92-1.8-3.87-3.44-.95-1.65-1.43-3.96-1.43-6.96v-18.33h-4.75v-3.58l5.2-2.86,2.6-7.47h5.14v7.74h10.01v6.17h-10.01v18.26c0,1.65.44,2.87,1.33,3.67.89.8,2,1.2,3.35,1.2Z"/>
    <path class="cls-2" d="m1524.84,727.72h-8.52v29.05h-8.19v-29.05h-5.66v-3.9l5.66-2.34v-2.41c0-4.51,1.07-7.64,3.22-9.39,2.14-1.76,5.08-2.63,8.81-2.63,1.69,0,3.24.14,4.65.42,1.41.28,2.57.6,3.48.94l-2.08,6.11c-.74-.22-1.55-.42-2.44-.62-.89-.2-1.85-.29-2.89-.29-1.6,0-2.76.49-3.48,1.46-.72.97-1.07,2.37-1.07,4.19v2.28h8.52v6.17Z"/>
    <path class="cls-2" d="m1565.4,739.09c0,5.85-1.52,10.37-4.55,13.55-3.03,3.18-7.15,4.78-12.35,4.78-3.21,0-6.07-.71-8.58-2.15-2.51-1.43-4.49-3.51-5.92-6.24-1.43-2.73-2.15-6.04-2.15-9.95,0-5.85,1.51-10.35,4.52-13.49s7.12-4.71,12.32-4.71c3.25,0,6.13.71,8.65,2.11,2.51,1.41,4.49,3.47,5.92,6.18s2.14,6.01,2.14,9.91Zm-25.15,0c0,3.73.66,6.61,1.98,8.64,1.32,2.04,3.46,3.06,6.4,3.06s5.03-1.02,6.37-3.06c1.34-2.04,2.01-4.92,2.01-8.64s-.67-6.59-2.01-8.58c-1.34-1.99-3.49-2.99-6.44-2.99s-5.07,1-6.37,2.99c-1.3,1.99-1.95,4.85-1.95,8.58Z"/>
    <path class="cls-2" d="m1595.56,720.89c.56,0,1.19.03,1.89.1.69.07,1.26.14,1.69.23l-.71,7.6c-.43-.09-.96-.16-1.59-.23-.63-.06-1.16-.1-1.59-.1-1.73,0-3.36.36-4.88,1.07-1.52.71-2.74,1.81-3.67,3.28-.93,1.47-1.4,3.36-1.4,5.66v18.26h-8.19v-35.23h6.31l1.17,6.11h.39c1.04-1.86,2.47-3.46,4.29-4.78,1.82-1.32,3.92-1.98,6.3-1.98Z"/>
    <path class="cls-2" d="m1649.25,720.89c3.99,0,6.99,1.02,9,3.05,2.01,2.04,3.02,5.33,3.02,9.88v22.94h-8.19v-21.38c0-5.24-1.99-7.87-5.98-7.87-2.86,0-4.9.93-6.11,2.79-1.21,1.86-1.82,4.57-1.82,8.12v18.33h-8.19v-21.38c0-5.24-2.02-7.87-6.04-7.87-2.99,0-5.05,1.04-6.18,3.12s-1.69,5.05-1.69,8.91v17.22h-8.19v-35.23h6.31l1.17,4.61h.46c1.08-1.82,2.56-3.15,4.42-4,1.86-.84,3.81-1.27,5.85-1.27,2.64,0,4.86.43,6.66,1.3,1.8.87,3.17,2.25,4.13,4.16h.65c1.08-1.91,2.6-3.29,4.55-4.16,1.95-.87,4.01-1.3,6.17-1.3Z"/>
    <rect class="cls-1" x="248" y="659" width="1424" height="23"/>
  </g>
  <g id="Layer_30" data-name="Layer 30">
    <g>
      <path class="cls-1" d="m642.07,191.53h125.67l111.35,284.74,114.53-284.74h122.49l-176.41,408.92c-8.28,19.18-29.81,31.94-53.9,31.94h-16.41c-24.21,0-45.82-12.88-54.01-32.19l-173.31-408.67Z"/>
      <path class="cls-2" d="m1229.94,191.71l.4,440.66-100-1-.4-439.8,100,.15Z"/>
      <path class="cls-2" d="m248,633.4c-.06-34.15.34-60.09.34-83.09,63,1,72.66,2.09,133.66,2.09,31.11,0,61.07-1.15,80-2,15.12-.68,36.04-3.74,47-10,7-4,11.98-9.86,13-19s-2.62-14.76-6.68-20.48c-6.08-7.84-16.21-16-30.39-24.48-18.18-11.65-71.61-35.84-118.3-62.54-22.25-12.92-37.6-22.14-46.06-27.66-19.08-12.08-33.71-22.94-43.88-32.58-10.18-9.64-17.49-19.23-21.94-28.77-4.46-9.54-6.68-19.71-6.68-30.52,0-19.92,5.58-45.58,22.27-63.06,16.69-17.48,33.66-25.91,67-32s85.58-7.62,136.35-8.52c45.28-.8,98.4.42,154.24,0,10.02,25.85,22.02,55.72,34.02,82.72-62,0-110.33-.27-152.22-.27-31.11,0-73.65,2.37-89.78,4.27-17,2-31.39,6.22-31.39,18.72,0,3.39.67,6.95,2.07,10.65.99,2.61,4.32,7.63,7.32,10.63,3.15,3.15,8.15,8.66,16.06,13.8,7.58,4.93,22.34,12.48,36,20,13.65,7.53,26.32,13.34,36,18l62.39,34.34c14.91,8.27,31.87,17.31,41.94,22.66,12.48,6.62,32.25,20.8,40.66,28,8.41,7.21,16.84,17.47,21.6,24.03,4.76,6.57,8.33,13.3,10.72,20.19,2.38,6.89,3.57,14.15,3.57,21.78,0,17.8-6.2,34.6-18.6,50.39-12.4,15.79-30.22,28.77-53.42,38.94-23.22,10.17-41.15,14.22-68.82,18.14-27.67,3.92-83.2,5.63-114.04,5.63h-164Z"/>
      <path class="cls-2" d="m1672,396.32c0,27.45-19.84,58-59.51,58l-270.73,3v175.29h-97.39V191.32l366.64.04c39.67,0,60,32.89,60,59.96l1,145Zm-97-71v-10c-.26-15.02-13.36-18.84-28.39-18.65l-204.86,2.65,1,48,204.61-2.65c15.12-.2,27.9-4.23,27.64-19.35Z"/>
    </g>
  </g>
</svg>